<svg width="207" height="249" viewBox="0 0 207 249" fill="none" xmlns="http://www.w3.org/2000/svg">
<path d="M133.15 223.41C133.15 226.23 121.47 228.52 107.05 228.52C92.63 228.52 80.95 226.23 80.95 223.41C80.95 220.59 92.64 218.31 107.05 218.31C121.46 218.31 133.15 220.59 133.15 223.41Z" fill="#263238"/>
<path d="M154.71 248.94C170.693 248.94 183.65 246.401 183.65 243.27C183.65 240.139 170.693 237.6 154.71 237.6C138.727 237.6 125.77 240.139 125.77 243.27C125.77 246.401 138.727 248.94 154.71 248.94Z" fill="#263238"/>
<path d="M138.92 33.16C138.92 33.16 142.92 27.7 152.48 28.64C162.04 29.58 165 36.77 165 36.77C170.51 36.163 176.067 36.096 181.59 36.57C191.42 37.31 197.59 43.07 195.83 46.38C194.07 49.69 187.27 60.88 180.04 62.78C172.81 64.68 161.25 60.95 155.78 58.23C150.31 55.51 138.96 38.15 138.96 38.15L138.92 33.16Z" fill="white" stroke="#263238" stroke-linecap="round" stroke-linejoin="round"/>
<path d="M165.45 51.15C165.45 51.15 172.34 49.42 177.86 51.49" stroke="#263238" stroke-linecap="round" stroke-linejoin="round"/>
<path d="M179.8 61.23C179.8 61.23 178.14 54.9 180.68 45.37C183.22 35.84 190.47 34.82 195.62 37.62C202.94 41.62 203.62 50.17 203.62 50.17C203.62 50.17 189.34 45.57 180.03 62.78" fill="#CF1556"/>
<path d="M179.8 61.23C179.8 61.23 178.14 54.9 180.68 45.37C183.22 35.84 190.47 34.82 195.62 37.62C202.94 41.62 203.62 50.17 203.62 50.17C203.62 50.17 189.34 45.57 180.03 62.78" stroke="#263238" stroke-linecap="round" stroke-linejoin="round"/>
<path d="M165.6 36.84C166.1 42.78 158.03 41.99 150.26 42.64C142.49 43.29 137.98 45.14 137.48 39.19C136.98 33.24 142.87 27.9 150.64 27.25C158.41 26.6 165.1 30.89 165.6 36.84Z" fill="#CF1556" stroke="#263238" stroke-linecap="round" stroke-linejoin="round"/>
<path d="M191.91 89.05C189.35 87.12 183.55 83.11 183.55 83.11C183.55 83.11 177.55 85.17 174.14 88.83C170.73 92.49 175.4 101.15 180.61 103.83C182.116 104.628 183.757 105.14 185.45 105.34C185.52 106.61 185.53 107.79 185.53 107.79C185.53 107.79 184.92 109.14 188.39 107.41C194.59 104.3 198.41 94 191.91 89.05Z" fill="white" stroke="#263238" stroke-linecap="round" stroke-linejoin="round"/>
<path d="M188 104.28C188 104.28 189 106.5 188.65 107.61C188.3 108.72 186.22 109.55 185.44 108.04C184.66 106.53 186.5 103.88 188 104.28Z" fill="#CF1556" stroke="#263238" stroke-linecap="round" stroke-linejoin="round"/>
<path d="M175.49 97.46C174.59 99.09 174.4 101.37 174.96 102.46C176.45 105.36 178.17 102.99 178.88 101.27C179.59 99.55 181 96.12 178.83 95.66C178.151 95.5292 177.448 95.6369 176.839 95.9649C176.231 96.2929 175.754 96.8211 175.49 97.46Z" fill="white" stroke="#263238" stroke-linecap="round" stroke-linejoin="round"/>
<path d="M177.89 99.36C176.99 100.99 176.8 103.27 177.36 104.36C178.85 107.26 180.56 104.89 181.27 103.17C181.98 101.45 183.4 98.02 181.27 97.56C180.585 97.4191 179.873 97.5219 179.255 97.8506C178.638 98.1792 178.155 98.7131 177.89 99.36Z" fill="white" stroke="#263238" stroke-linecap="round" stroke-linejoin="round"/>
<path d="M181.19 101.1C180.29 102.73 180.11 105.01 180.66 106.1C182.15 109 183.87 106.63 184.58 104.91C185.29 103.19 186.71 99.76 184.53 99.3C183.851 99.1692 183.148 99.2769 182.539 99.6049C181.931 99.9329 181.454 100.461 181.19 101.1Z" fill="white" stroke="#263238" stroke-linecap="round" stroke-linejoin="round"/>
<path d="M184.54 101.8C183.64 103.44 183.45 105.71 184.01 106.8C185.5 109.7 187.22 107.33 187.93 105.61C188.64 103.89 190.05 100.46 187.88 100C187.201 99.8692 186.498 99.977 185.889 100.305C185.281 100.633 184.804 101.161 184.54 101.8Z" fill="white" stroke="#263238" stroke-linecap="round" stroke-linejoin="round"/>
<path d="M174.14 88.83C174.14 88.83 169.85 92.65 170.96 95.67C172.07 98.69 180.09 102.13 181.16 98.67C182.23 95.21 177.25 93.14 177.25 93.14L174.49 91.34" fill="white"/>
<path d="M174.14 88.83C174.14 88.83 169.85 92.65 170.96 95.67C172.07 98.69 180.09 102.13 181.16 98.67C182.23 95.21 177.25 93.14 177.25 93.14L174.49 91.34" stroke="#263238" stroke-linecap="round" stroke-linejoin="round"/>
<path d="M184.55 90.83C183.815 91.3402 183.238 92.0465 182.884 92.8685C182.53 93.6906 182.415 94.5954 182.55 95.48C182.92 98.7 186.64 99.3 186.64 99.3" fill="white"/>
<path d="M184.55 90.83C183.815 91.3402 183.238 92.0465 182.884 92.8685C182.53 93.6906 182.415 94.5954 182.55 95.48C182.92 98.7 186.64 99.3 186.64 99.3" stroke="#263238" stroke-linecap="round" stroke-linejoin="round"/>
<path d="M193.17 41.36C190.232 41.9495 187.5 43.297 185.244 45.2687C182.988 47.2404 181.287 49.7678 180.31 52.6C176.94 62.4 178.12 83.14 178.9 85.67C179.68 88.2 186.31 91.67 189.9 91.11C193.49 90.55 195.36 88.84 196.8 85.73C198.24 82.62 207.3 68 205.6 56.05C203.9 44.1 202.19 42.2 193.17 41.36Z" fill="white" stroke="#263238" stroke-linecap="round" stroke-linejoin="round"/>
<path d="M201.1 46.16C201.1 46.16 204.39 54.58 202.93 62.63C201.47 70.68 194.51 85.69 194.51 85.69" stroke="#263238" stroke-linecap="round" stroke-linejoin="round"/>
<path d="M187.91 87.82C184.246 86.9806 180.933 85.0238 178.43 82.22C178.494 83.3808 178.651 84.5345 178.9 85.67C179.69 88.2 186.31 91.67 189.9 91.11C191.085 90.9852 192.228 90.5995 193.246 89.9805C194.265 89.3615 195.133 88.5246 195.79 87.53C193.224 88.252 190.522 88.3514 187.91 87.82Z" fill="#CF1556" stroke="#263238" stroke-linecap="round" stroke-linejoin="round"/>
<path d="M175.1 92C175.1 92 171.56 92.39 170.96 95.69C170.96 95.69 170.29 92.09 172.54 90.96C174.79 89.83 175.1 92 175.1 92Z" fill="#CF1556" stroke="#263238" stroke-linecap="round" stroke-linejoin="round"/>
<path d="M77.73 31.28C77.73 31.28 84.73 37.6 83.59 40.41C82.45 43.22 81.48 44.16 82.65 45.1C83.82 46.04 86.87 45.8 86.87 45.8C86.87 45.8 91.08 50.48 93.87 50.48C96.66 50.48 113.08 35.26 113.31 33.15C113.54 31.04 110.74 27.76 107.69 22.15C104.64 16.54 98.09 9.04 92.23 11.61C86.37 14.18 77.73 31.28 77.73 31.28Z" fill="white" stroke="#263238" stroke-linecap="round" stroke-linejoin="round"/>
<path d="M82.18 33.62C82.18 33.62 82.18 29.87 85.46 30.81" stroke="#263238" stroke-linecap="round" stroke-linejoin="round"/>
<path d="M86.9 34.79C87.42 35.45 87.52 36.24 87.12 36.56C86.72 36.88 85.96 36.62 85.43 35.96C84.9 35.3 84.81 34.51 85.21 34.19C85.61 33.87 86.37 34.13 86.9 34.79Z" fill="#263238"/>
<path d="M103.5 28.93L100.69 30.81C100.69 30.81 102.79 37.6 102.79 39.47V43.93" fill="white"/>
<path d="M103.5 28.93L100.69 30.81C100.69 30.81 102.79 37.6 102.79 39.47V43.93" stroke="#263238" stroke-linecap="round" stroke-linejoin="round"/>
<path d="M89.79 45.38C89.79 45.38 91.79 45.09 92.11 41.61L89.79 45.38Z" fill="white"/>
<path d="M89.79 45.38C89.79 45.38 91.79 45.09 92.11 41.61" stroke="#263238" stroke-miterlimit="10"/>
<path d="M89.91 18.86C89.91 18.86 82.65 32.92 76.09 34.56C69.53 36.2 65.55 31.04 67.66 23.78C69.77 16.52 77.5 6.67999 81.48 8.08999C85.46 9.49999 83.59 13.01 85.48 10.43C87.37 7.84999 89.48 0.829994 98.83 1.05999C108.18 1.28999 108.9 9.49 109.61 15.35C110.32 21.21 115.23 27.06 114.53 28.7C113.83 30.34 110.53 32.21 108.2 31.75C105.87 31.29 103.52 28.93 103.52 28.93C103.52 28.93 103.99 19.33 100.24 19.33C96.49 19.33 97.9 26.83 97.9 26.83C97.9 26.83 97.66 25.19 95.08 25.19C92.5 25.19 91.34 27.3 89.93 26.36C88.52 25.42 89.91 18.86 89.91 18.86Z" fill="#263238" stroke="#263238" stroke-miterlimit="10"/>
<path d="M76.07 31.05C77.9754 30.6425 79.7418 29.7459 81.1954 28.4484C82.6491 27.1508 83.7397 25.4971 84.36 23.65C86.43 17.29 86.87 14.65 93.53 12.55C100.19 10.45 102.34 13.9 105.96 14.62" stroke="white" stroke-width="0.5" stroke-linecap="round" stroke-linejoin="round"/>
<path d="M91 21.58C91 21.58 92.33 16.58 97.06 15.81C101.79 15.04 104.61 19.81 107.57 20.25" stroke="white" stroke-width="0.5" stroke-linecap="round" stroke-linejoin="round"/>
<path d="M98.41 17.88C98.41 17.88 95.6 22.61 94.27 24.24C93.8526 24.7196 93.3254 25.091 92.7333 25.3226C92.1413 25.5542 91.502 25.6391 90.87 25.57" stroke="white" stroke-width="0.5" stroke-linecap="round" stroke-linejoin="round"/>
<path d="M82.28 17.73C82.28 17.73 80.95 23.21 75.33 24.09C69.71 24.97 75.03 15.51 78.73 15.95C82.43 16.39 78.73 19.36 78.14 19.65" stroke="white" stroke-width="0.5" stroke-linecap="round" stroke-linejoin="round"/>
<path d="M89.21 55.17C89.21 55.17 117.78 39.47 126.45 37.6C135.12 35.73 136.52 36.66 138.4 35.73C140.28 34.8 132.54 27.3 120.13 28.47C107.72 29.64 101.62 36.66 96.7 42.52C93.5916 46.3432 91.0675 50.6062 89.21 55.17Z" fill="#CF1556" stroke="#263238" stroke-linecap="round" stroke-linejoin="round"/>
<path d="M17.1 43.88L24.25 67.55L35.5 63.8L28.37 40.2C28.3211 40.0381 28.2403 39.8875 28.1324 39.7572C28.0245 39.627 27.8917 39.5195 27.7417 39.4413C27.5917 39.363 27.4277 39.3155 27.2591 39.3016C27.0905 39.2876 26.9208 39.3075 26.76 39.36L17.92 42.31C17.6058 42.4134 17.3443 42.6352 17.1911 42.9285C17.038 43.2217 17.0053 43.5631 17.1 43.88Z" fill="#263238" stroke="#263238" stroke-miterlimit="10"/>
<path d="M19.36 45.65L24.71 63.4L33.24 60.55L27.9 42.87C27.8557 42.7208 27.7818 42.582 27.6827 42.4619C27.5837 42.3418 27.4615 42.2429 27.3233 42.171C27.1852 42.0992 27.0341 42.0559 26.8789 42.0437C26.7237 42.0315 26.5676 42.0506 26.42 42.1L20.1 44.21C19.8117 44.304 19.5722 44.508 19.4337 44.7777C19.2951 45.0474 19.2686 45.3609 19.36 45.65Z" fill="white"/>
<path d="M33.49 19.54C28.43 16.69 21.65 15.99 15.35 17.65C9.05001 19.31 3.35 23.36 0.420001 28.41C0.194726 28.7973 0.132444 29.2581 0.246829 29.6913C0.361214 30.1244 0.642906 30.4945 1.03 30.72C1.22048 30.8341 1.43191 30.9088 1.65177 30.9397C1.87163 30.9706 2.09545 30.9571 2.31 30.9C2.73147 30.7787 3.08976 30.4993 3.31 30.12C5.83 25.82 10.64 22.39 16.18 20.92C21.3965 19.4447 26.9783 20.0021 31.8 22.48C31.9936 22.6016 32.2098 22.6827 32.4356 22.7184C32.6615 22.754 32.8922 22.7435 33.1138 22.6874C33.3354 22.6313 33.5434 22.5308 33.725 22.392C33.9067 22.2532 34.0583 22.079 34.1707 21.88C34.2832 21.6809 34.354 21.4611 34.379 21.2338C34.404 21.0066 34.3826 20.7766 34.3162 20.5579C34.2497 20.3391 34.1396 20.1361 33.9924 19.9612C33.8453 19.7862 33.6641 19.6429 33.46 19.54H33.49Z" fill="#CF1556"/>
<path d="M30.28 25.45C26.1291 23.6147 21.4757 23.2527 17.0908 24.4239C12.706 25.5951 8.85291 28.2293 6.17 31.89C5.91719 32.2583 5.81952 32.7114 5.89812 33.1511C5.97672 33.5909 6.22526 33.9821 6.59 34.24C6.79204 34.3791 7.02149 34.4733 7.26296 34.5165C7.50442 34.5596 7.75232 34.5506 7.99001 34.49C8.37632 34.3868 8.71316 34.1493 8.94001 33.82C11.1643 30.8107 14.3449 28.6462 17.9605 27.6815C21.5761 26.7167 25.4122 27.0088 28.84 28.51C29.2458 28.701 29.7108 28.7229 30.1328 28.571C30.5547 28.4191 30.899 28.1058 31.09 27.7C31.281 27.2942 31.3029 26.8292 31.151 26.4072C30.9991 25.9853 30.6858 25.641 30.28 25.45Z" fill="#CF1556"/>
<path d="M27 31.31C24.3648 30.1078 21.3897 29.8749 18.5996 30.6525C15.8094 31.4301 13.3836 33.1681 11.75 35.56C11.5498 35.8432 11.4415 36.1811 11.44 36.528C11.4384 36.8748 11.5436 37.2137 11.7412 37.4987C11.9388 37.7837 12.2194 38.001 12.5448 38.1211C12.8701 38.2412 13.2246 38.2583 13.56 38.17C13.9376 38.0653 14.2688 37.8363 14.5 37.52C15.6851 35.7604 17.4585 34.4807 19.502 33.9107C21.5455 33.3408 23.7252 33.5178 25.65 34.41C26.0611 34.589 26.5265 34.5974 26.9437 34.4333C27.361 34.2692 27.696 33.9461 27.875 33.535C28.054 33.1239 28.0624 32.6586 27.8983 32.2413C27.7342 31.824 27.4111 31.489 27 31.31Z" fill="#CF1556"/>
<path d="M97.27 206.13C95.3739 207.749 93.2386 209.064 90.94 210.03C88.02 211.03 84.86 207.59 82.18 211.03C79.5 214.47 79.26 218.82 83.88 221.5C88.5 224.18 92.4 225.88 95.81 225.39C99.22 224.9 103.81 223.69 107.24 224.66C110.67 225.63 116.73 227.82 119.9 225.88C123.07 223.94 123.55 219.55 122.82 216.88C122.09 214.21 119.65 205.2 119.65 205.2C119.65 205.2 101.65 209.3 97.27 206.13Z" fill="#CF1556" stroke="#263238" stroke-linecap="round" stroke-linejoin="round"/>
<path d="M117 222.2C111.89 223.66 109.21 220.74 106.29 220.74C103.37 220.74 98.99 222.44 92.18 220.98C87.9599 219.881 83.9449 218.109 80.29 215.73C80.22 217.86 81.29 219.94 83.9 221.47C88.53 224.14 92.42 225.85 95.83 225.36C99.24 224.87 103.83 223.66 107.26 224.63C110.69 225.6 116.75 227.79 119.92 225.85C122.62 224.18 123.37 220.74 123.07 218.11C121.531 220.082 119.405 221.514 117 222.2Z" fill="white" stroke="#263238" stroke-linecap="round" stroke-linejoin="round"/>
<path d="M160.05 129.48C160.05 129.48 153.48 145.3 146.18 152.36C138.88 159.42 121.84 166.71 121.84 166.71C121.84 166.71 123.3 200.05 122.09 204.19C120.88 208.33 111.14 209.54 110.16 212.19C109.18 214.84 110.16 220.19 107.73 222.19C105.3 224.19 101.89 224.13 100.92 220.97C99.95 217.81 101.16 212.45 99.21 209.53C97.26 206.61 97.51 208.53 95.56 204.42C93.61 200.31 92.89 182.76 92.89 173.03C92.89 163.3 95.81 155.03 98.24 149.18C100.67 143.33 107.49 136.28 113.81 133.85C120.13 131.42 160.05 129.48 160.05 129.48Z" fill="#CF1556" stroke="#263238" stroke-linecap="round" stroke-linejoin="round"/>
<path opacity="0.5" d="M160.05 129.48C160.05 129.48 153.48 145.3 146.18 152.36C138.88 159.42 121.84 166.71 121.84 166.71C121.84 166.71 123.3 200.05 122.09 204.19C120.88 208.33 111.14 209.54 110.16 212.19C109.18 214.84 110.16 220.19 107.73 222.19C105.3 224.19 101.89 224.13 100.92 220.97C99.95 217.81 101.16 212.45 99.21 209.53C97.26 206.61 97.51 208.53 95.56 204.42C93.61 200.31 92.89 182.76 92.89 173.03C92.89 163.3 95.81 155.03 98.24 149.18C100.67 143.33 107.49 136.28 113.81 133.85C120.13 131.42 160.05 129.48 160.05 129.48Z" fill="white" stroke="#263238" stroke-miterlimit="10"/>
<path d="M95.08 126.56C95.08 126.56 90.7 152.56 94.08 168.17C97.46 183.78 102.6 195.67 107.95 197.62C113.3 199.57 129.85 184.96 129.85 179.85C129.85 174.74 129.12 162.58 129.61 152.36C130.1 142.14 130.61 140.67 130.61 140.67L95.08 126.56Z" fill="white" stroke="#263238" stroke-linecap="round" stroke-linejoin="round"/>
<path d="M131.09 179.37C131.09 179.37 129.87 174.5 120.87 174.26C111.87 174.02 107.49 184.72 106.27 190.32C105.05 195.92 107.49 202.24 111.87 202.73C116.25 203.22 132.55 191.29 131.09 179.37Z" fill="#CF1556" stroke="#263238" stroke-linecap="round" stroke-linejoin="round"/>
<path d="M96.07 110.25C96.07 110.25 94.22 124.86 95.25 130.41C96.28 135.96 112.53 146.05 126.11 146.05C139.69 146.05 153.88 140.9 160.26 131.23C166.64 121.56 160.88 108.4 160.88 108.4C160.88 108.4 143.39 114.98 127.96 115.4C112.53 115.82 96.07 110.25 96.07 110.25Z" fill="#CF1556" stroke="#263238" stroke-linecap="round" stroke-linejoin="round"/>
<path d="M41.66 77.89C41.66 77.89 42.13 71.33 39.79 68.05C37.45 64.77 33.93 61.26 33.93 59.85C33.93 58.44 37.45 54.23 34.87 53.06C32.29 51.89 29.72 54 29.01 57.06C28.3 60.12 29.25 64.79 29.25 64.79C28.6059 65.0022 27.9266 65.0871 27.25 65.04C25.83 65.04 21.12 62.79 19.53 62.79C17.94 62.79 15.37 65.04 16.43 67.53C17.49 70.02 19.34 70.97 19.34 71.68C19.34 72.39 16.79 74.62 17.68 76.22C18.2421 77.2128 18.9576 78.1105 19.8 78.88C19.8 78.88 18.92 81.36 19.27 82.6C19.62 83.84 21.58 85.08 21.58 85.08C21.58 85.08 21.22 86.32 24.58 87.74C27.94 89.16 33.98 88.81 35.58 87.21C37.18 85.61 41.66 77.89 41.66 77.89Z" fill="white" stroke="#263238" stroke-linecap="round" stroke-linejoin="round"/>
<path d="M40.49 75.78C40.49 75.78 38.49 72.29 35.09 74.42C33.4743 75.4315 32.1924 76.8967 31.4045 78.6326C30.6167 80.3684 30.3577 82.2979 30.66 84.18C30.8746 85.2125 31.3438 86.1749 32.0249 86.98C32.706 87.7851 33.5774 88.4073 34.56 88.79L40.49 75.78Z" fill="#CF1556" stroke="#263238" stroke-linecap="round" stroke-linejoin="round"/>
<path d="M62 91C62 91 57.08 87.72 53.1 84.45C49.12 81.18 42.32 78.12 40.45 75.78C38.58 73.44 32.96 77.89 32.96 84.91C32.96 91.93 39.51 105.29 43.96 108.8C48.41 112.31 52.63 113.96 54.27 113.96C55.91 113.96 57.27 109.04 58.27 104.35C59.27 99.66 62 91 62 91Z" fill="white" stroke="#263238" stroke-linecap="round" stroke-linejoin="round"/>
<path d="M37.84 76.54C37.84 76.54 50.65 85.69 53.58 91.18" stroke="#263238" stroke-linecap="round" stroke-linejoin="round"/>
<path d="M59.93 90.77C59.93 90.77 51.73 95.22 49.86 104.35C47.99 113.48 53.61 117.24 58.76 117.94C64.28 118.69 73.98 110.21 73.98 110.21C73.98 110.21 58.06 112.08 59.93 90.77Z" fill="#CF1556" stroke="#263238" stroke-linecap="round" stroke-linejoin="round"/>
<path d="M89.21 55.17C89.21 55.17 75.62 59.85 70 67.58C64.38 75.31 65.55 84.68 65.55 84.68C61.0776 88.4202 57.8165 93.4042 56.18 99C53.61 108.13 55.72 113.05 68.13 113.75C80.54 114.45 93.19 92.67 93.19 92.67C93.19 92.67 94.36 106.26 96 111.88C97.64 117.5 100.92 119.37 109.59 121.01C118.26 122.65 131.37 122.18 146.13 119.37C160.89 116.56 161.35 110.01 162.29 103.45C163.23 96.89 166.9 75.78 159.96 54.45C155.47 40.64 142.61 36.01 138.4 35.78C134.19 35.55 108.42 39.94 89.21 55.17Z" fill="white" stroke="#263238" stroke-linecap="round" stroke-linejoin="round"/>
<path d="M80.1 97.01C89.6545 97.01 97.4 88.8481 97.4 78.78C97.4 68.7118 89.6545 60.55 80.1 60.55C70.5455 60.55 62.8 68.7118 62.8 78.78C62.8 88.8481 70.5455 97.01 80.1 97.01Z" fill="#CF1556" stroke="#263238" stroke-linecap="round" stroke-linejoin="round"/>
<path d="M92 87.14C90.7489 89.1711 89.0026 90.8514 86.9247 92.0233C84.8468 93.1951 82.5055 93.8202 80.12 93.84C78.8658 93.8402 77.6176 93.6686 76.41 93.33" stroke="#263238" stroke-linecap="round" stroke-linejoin="round"/>
<path d="M94.38 78.78C94.3801 80.2783 94.1714 81.7693 93.76 83.21" stroke="#263238" stroke-linecap="round" stroke-linejoin="round"/>
<path d="M33.93 59.85C34.0146 59.3081 34.1976 58.7861 34.47 58.31C32.7084 57.8748 30.847 58.1325 29.27 59.03C29.0897 59.1496 28.9191 59.2834 28.76 59.43C28.7468 60.5464 28.8103 61.6623 28.95 62.77C28.9771 62.7029 28.994 62.6321 29 62.56C29.066 62.1571 29.2136 61.7719 29.4337 61.428C29.6538 61.0841 29.9418 60.7887 30.28 60.56C31.4131 59.9635 32.7236 59.7966 33.97 60.09C33.9484 60.0116 33.935 59.9312 33.93 59.85Z" fill="#CF1556" stroke="#263238" stroke-linecap="round" stroke-linejoin="round"/>
<path d="M24.31 87.1C23.5128 86.4271 22.9841 85.4902 22.82 84.46C22.783 84.2615 22.6868 84.0788 22.544 83.936C22.4012 83.7932 22.2185 83.697 22.02 83.66C22.02 83.66 21.25 83.51 20.59 82.12C20.3996 81.6072 20.3224 81.0592 20.3639 80.5137C20.4053 79.9682 20.5643 79.4382 20.83 78.96C20.9518 78.7498 20.9865 78.5003 20.9267 78.2648C20.8669 78.0293 20.7173 77.8266 20.51 77.7C19.98 77.38 18.62 76.28 18.62 75.03C18.6561 74.559 18.8095 74.1045 19.0663 73.708C19.3231 73.3115 19.675 72.9856 20.09 72.76C20.242 72.6797 20.3685 72.5585 20.4551 72.41C20.5417 72.2616 20.5849 72.0918 20.58 71.92C20.58 71.92 20.52 68.42 21.75 66.44C22.85 64.68 23.93 64.44 24.01 64.44C24.165 64.4108 24.3097 64.3419 24.43 64.24L22.05 63.39C21.3057 63.9612 20.6748 64.6667 20.19 65.47C19.3216 67.0951 18.8392 68.8984 18.78 70.74C19.13 71.12 19.38 71.41 19.38 71.67C19.38 72.38 16.83 74.61 17.72 76.21C18.2821 77.2028 18.9976 78.1005 19.84 78.87C19.84 78.87 18.96 81.35 19.31 82.59C19.66 83.83 21.62 85.07 21.62 85.07C21.62 85.07 21.26 86.31 24.62 87.73C25.0905 87.9239 25.5753 88.081 26.07 88.2C25.4629 87.8671 24.8752 87.4999 24.31 87.1Z" fill="#CF1556" stroke="#263238" stroke-linecap="round" stroke-linejoin="round"/>
<path d="M73 96.66L65.75 103.9" stroke="#263238" stroke-linecap="round" stroke-linejoin="round"/>
<path d="M63.38 106.32L58.21 109.77" stroke="#263238" stroke-linecap="round" stroke-linejoin="round"/>
<path d="M168.32 215.87C168.32 215.87 170.27 218.3 168.32 222.93C166.37 227.56 159.81 236.31 154 239C148.881 241.27 143.473 242.825 137.93 243.62C133.31 244.35 126.98 243.13 126.98 243.13C126.98 243.13 138.18 241.19 142.8 236.08C147.42 230.97 150.59 220.26 157.65 215.15C164.71 210.04 168.32 215.87 168.32 215.87Z" fill="#263238" stroke="#263238" stroke-miterlimit="10"/>
<path d="M135.71 223.66C134.353 224.068 132.974 224.402 131.58 224.66C127.2 225.66 123.3 227.34 122.82 233.18C122.34 239.02 123.55 242.67 126.95 243.18C130.35 243.69 138.15 244.4 144.95 240.75C151.75 237.1 158.09 224.45 161.5 220.55C164.91 216.65 168.31 215.93 168.31 215.93C167.98 213.915 167.049 212.047 165.64 210.57C163.145 207.558 160.283 204.871 157.12 202.57C152.74 199.41 144.71 198.68 141.3 203.57C137.89 208.46 139.6 214.03 139.6 217.44C139.6 220.85 135.71 223.66 135.71 223.66Z" fill="#CF1556" stroke="#263238" stroke-linecap="round" stroke-linejoin="round"/>
<path d="M166.26 211.25C163.85 211.34 160.88 212.38 157.62 216.11C152.5 221.95 151.53 231.69 141.31 236.8C135.735 239.448 129.561 240.579 123.41 240.08C123.652 240.866 124.115 241.565 124.742 242.097C125.369 242.629 126.135 242.97 126.95 243.08C130.36 243.57 138.15 244.3 144.95 240.65C151.75 237 158.09 224.35 161.5 220.45C164.91 216.55 168.31 215.83 168.31 215.83C168.036 214.151 167.329 212.573 166.26 211.25Z" fill="white" stroke="#263238" stroke-linecap="round" stroke-linejoin="round"/>
<path d="M160.78 205.65C160.78 205.65 162 204.19 159.08 200.78C156.16 197.37 135.23 179.61 130.36 178.39C125.49 177.17 116 180.34 111.36 188.86C106.72 197.38 110.36 203.94 113.79 209.3C117.22 214.66 136.67 226.58 141.29 229.5C145.91 232.42 148.1 228.04 148.1 223.66C148.1 219.28 141.78 212.95 144.45 208.08C147.12 203.21 152.24 201.51 155.45 202.48C157.435 203.139 159.253 204.22 160.78 205.65Z" fill="white" stroke="#263238" stroke-linecap="round" stroke-linejoin="round"/>
<path d="M104.3 95.51C104.3 95.51 109.8 112.58 115.01 116.63C120.22 120.68 124.01 120.69 124.01 120.69L126.82 128.84C126.996 129.365 127.286 129.845 127.67 130.245C128.054 130.644 128.522 130.953 129.04 131.15C130.5 131.69 133.35 131.24 137.26 130.15C142.53 128.73 143.66 126.59 144.1 124.98C144.265 124.357 144.265 123.703 144.1 123.08L139.1 104.44L104.3 95.51Z" fill="#CF1556" stroke="#263238" stroke-miterlimit="10"/>
<path d="M144.07 125C144.235 124.377 144.235 123.723 144.07 123.1L142.4 116.88C139.223 116.006 135.865 116.043 132.708 116.987C129.552 117.932 126.725 119.745 124.55 122.22L126.82 128.82C126.996 129.345 127.286 129.825 127.67 130.225C128.054 130.624 128.522 130.933 129.04 131.13C130.5 131.67 133.35 131.22 137.26 130.13C142.5 128.77 143.63 126.63 144.07 125Z" fill="#CF1556" stroke="#263238" stroke-miterlimit="10"/>
<path d="M144.25 124.63C144.83 126.42 141.61 129.07 137.05 130.56C132.49 132.05 128.33 131.8 127.75 130.02C127.17 128.24 130.38 125.57 134.94 124.09C139.5 122.61 143.67 122.84 144.25 124.63Z" fill="#263238" stroke="#263238" stroke-miterlimit="10"/>
<path d="M126.39 120.97L128.52 127.2" stroke="#263238" stroke-width="0.5" stroke-miterlimit="10"/>
<path d="M129.34 118.68L131.8 125.4" stroke="#263238" stroke-width="0.5" stroke-miterlimit="10"/>
<path d="M133.76 117.21L135.89 123.92" stroke="#263238" stroke-width="0.5" stroke-miterlimit="10"/>
<path d="M138.84 116.72L140.64 122.78" stroke="#263238" stroke-width="0.5" stroke-miterlimit="10"/>
<path d="M167.55 77.15C167.55 77.15 171.97 94.54 169.71 100.74C167.45 106.94 164.26 108.94 164.26 108.94L166.26 117.33C166.39 117.87 166.398 118.431 166.284 118.974C166.17 119.517 165.936 120.028 165.6 120.47C164.65 121.71 162 122.84 158.13 124.03C152.91 125.63 150.82 124.41 149.59 123.28C149.12 122.833 148.775 122.271 148.59 121.65L142.9 103.2L167.55 77.15Z" fill="#CF1556" stroke="#263238" stroke-miterlimit="10"/>
<path d="M149.55 123.28C149.08 122.833 148.735 122.271 148.55 121.65L146.66 115.5C148.887 113.059 151.757 111.296 154.941 110.411C158.125 109.527 161.493 109.558 164.66 110.5L166.25 117.3C166.38 117.84 166.388 118.401 166.274 118.944C166.16 119.487 165.926 119.998 165.59 120.44C164.64 121.68 161.99 122.81 158.12 124C152.87 125.63 150.78 124.41 149.55 123.28Z" fill="#CF1556" stroke="#263238" stroke-miterlimit="10"/>
<path d="M149.19 123.05C149.64 124.87 153.78 125.41 158.43 124.24C163.08 123.07 166.49 120.66 166.03 118.84C165.57 117.02 161.44 116.48 156.79 117.64C152.14 118.8 148.73 121.22 149.19 123.05Z" fill="#263238" stroke="#263238" stroke-miterlimit="10"/>
<path d="M162.38 110.46L163.88 116.86" stroke="#263238" stroke-width="0.5" stroke-miterlimit="10"/>
<path d="M158.66 110.08L160.15 117.08" stroke="#263238" stroke-width="0.5" stroke-miterlimit="10"/>
<path d="M154.13 111.18L155.9 118" stroke="#263238" stroke-width="0.5" stroke-miterlimit="10"/>
<path d="M149.57 113.47L151.26 119.56" stroke="#263238" stroke-width="0.5" stroke-miterlimit="10"/>
<path d="M133.59 111.01C154.61 111.01 171.65 94.0729 171.65 73.18C171.65 52.2871 154.61 35.35 133.59 35.35C112.57 35.35 95.53 52.2871 95.53 73.18C95.53 94.0729 112.57 111.01 133.59 111.01Z" fill="#CF1556" stroke="#263238" stroke-miterlimit="10"/>
<path d="M138.742 103.087C157.672 101.68 171.945 86.1004 170.621 68.2886C169.297 50.4768 152.879 37.1779 133.949 38.5847C115.019 39.9914 100.746 55.5711 102.07 73.3828C103.394 91.1946 119.812 104.494 138.742 103.087Z" fill="#263238" stroke="#263238" stroke-miterlimit="10"/>
<path d="M106.82 60.26C108.664 55.8426 111.529 51.9254 115.18 48.83" stroke="white" stroke-width="0.5" stroke-linecap="round" stroke-linejoin="round"/>
<path d="M105.31 77.08C105.036 75.794 104.849 74.4911 104.75 73.18C104.548 70.5012 104.73 67.8074 105.29 65.18" stroke="white" stroke-width="0.5" stroke-linecap="round" stroke-linejoin="round"/>
<path d="M159.72 53.16C152.35 48.64 142.3 47.21 132.82 49.33C123.34 51.45 114.68 57.16 110 64.5C109.809 64.7783 109.675 65.0921 109.608 65.423C109.54 65.7538 109.54 66.0949 109.607 66.4259C109.673 66.7568 109.806 67.071 109.997 67.3498C110.187 67.6285 110.432 67.8661 110.716 68.0484C111 68.2307 111.318 68.3541 111.651 68.4111C111.984 68.4682 112.325 68.4577 112.653 68.3805C112.982 68.3032 113.292 68.1606 113.565 67.9613C113.837 67.7619 114.067 67.5099 114.24 67.22C118.24 60.97 125.59 56.12 133.93 54.22C142.27 52.32 150.82 53.57 157.09 57.42C157.372 57.6066 157.688 57.7345 158.021 57.7963C158.353 57.8581 158.694 57.8524 159.024 57.7796C159.354 57.7067 159.666 57.5683 159.942 57.3724C160.217 57.1766 160.45 56.9273 160.627 56.6395C160.804 56.3517 160.922 56.0311 160.973 55.697C161.023 55.3629 161.006 55.022 160.923 54.6945C160.839 54.3671 160.69 54.0599 160.485 53.7911C160.28 53.5223 160.024 53.2975 159.73 53.13L159.72 53.16Z" fill="white"/>
<path d="M154.6 61.78C148.526 58.8104 141.62 58.0065 135.026 59.5016C128.433 60.9967 122.549 64.701 118.35 70C118.151 70.2632 118.005 70.563 117.922 70.8825C117.839 71.2019 117.819 71.5347 117.865 71.8616C117.91 72.1886 118.02 72.5034 118.187 72.788C118.355 73.0725 118.576 73.3213 118.84 73.52C119.104 73.7196 119.405 73.8653 119.725 73.9487C120.045 74.0321 120.379 74.0516 120.706 74.0061C121.034 73.9606 121.35 73.851 121.635 73.6835C121.921 73.516 122.17 73.294 122.37 73.03C125.85 68.6761 130.707 65.6338 136.143 64.4019C141.579 63.17 147.273 63.8217 152.29 66.25C152.584 66.4017 152.905 66.4939 153.235 66.5215C153.565 66.549 153.897 66.5114 154.212 66.4106C154.527 66.3099 154.82 66.148 155.072 65.9343C155.325 65.7206 155.533 65.4592 155.685 65.165C155.837 64.8708 155.929 64.5497 155.956 64.2199C155.984 63.8901 155.946 63.558 155.846 63.2428C155.745 62.9275 155.583 62.6352 155.369 62.3825C155.156 62.1298 154.894 61.9217 154.6 61.77V61.78Z" fill="white"/>
<path d="M149.42 70.33C145.564 68.391 141.148 67.8756 136.949 68.8744C132.751 69.8733 129.039 72.3224 126.47 75.79C126.152 76.2005 125.969 76.6991 125.945 77.2176C125.922 77.7361 126.059 78.2493 126.338 78.687C126.617 79.1247 127.024 79.4655 127.504 79.663C127.984 79.8604 128.514 79.9047 129.02 79.79C129.594 79.6652 130.105 79.3389 130.46 78.87C132.327 76.3236 135.039 74.5235 138.111 73.7909C141.182 73.0582 144.414 73.4407 147.23 74.87C147.824 75.116 148.49 75.1256 149.091 74.8966C149.692 74.6677 150.183 74.2176 150.463 73.6385C150.743 73.0595 150.791 72.3953 150.597 71.782C150.403 71.1688 149.982 70.6529 149.42 70.34V70.33Z" fill="white"/>
<path d="M145.532 86.6541C147.335 83.8479 146.522 80.111 143.716 78.3073C140.91 76.5037 137.173 77.3165 135.37 80.1227C133.566 82.9288 134.379 86.6658 137.185 88.4694C139.991 90.273 143.728 89.4603 145.532 86.6541Z" fill="white"/>
<path d="M101.35 139.44C100.53 145.457 100.329 151.542 100.75 157.6" stroke="#263238" stroke-linecap="round" stroke-linejoin="round"/>
<path d="M101.35 160.88C101.417 164.108 101.915 167.313 102.83 170.41" stroke="#263238" stroke-linecap="round" stroke-linejoin="round"/>
<path d="M111.17 192.75C111.17 192.75 113.26 197.81 122.79 206.45C132.32 215.09 144.24 224.62 144.24 224.62" stroke="#263238" stroke-linecap="round" stroke-linejoin="round"/>
<path d="M101.35 120.37C101.35 120.37 99.56 129.01 101.05 133.48" stroke="#263238" stroke-linecap="round" stroke-linejoin="round"/>
</svg>
