<svg width="1339" height="422" viewBox="0 0 1339 422" fill="none" xmlns="http://www.w3.org/2000/svg">
<path d="M523.858 342.027C494.62 341.346 466.296 337.645 438.388 330.661C434.279 329.633 432.902 327.906 432.908 323.572C433.037 221.109 433.029 118.645 432.934 16.1813C432.93 12.0461 433.717 10.088 438.361 9.41418C457.94 6.57324 477.448 3.25043 497.628 0C497.628 37.5204 497.628 74.5837 497.628 112.518C500.071 111.707 501.747 111.213 503.379 110.6C526.183 102.043 549.556 100.373 573.105 106.29C603.756 113.991 623.983 133.888 634.835 163.062C647.212 196.338 648.88 230.534 639 264.642C626.404 308.121 596.225 332.38 552.203 339.906C543.067 341.468 533.646 341.364 523.858 342.027ZM498.573 284.67C509.505 285.39 520.479 287.085 531.359 286.613C550.121 285.798 563.924 276.141 571.267 258.839C574.727 250.687 577.124 241.768 578.179 232.977C580.174 216.345 579.423 199.684 573.072 183.808C567.351 169.504 556.975 160.862 541.529 158.712C527.781 156.798 514.727 159.333 502.074 164.757C498.885 166.125 497.688 167.979 497.711 171.544C497.87 196.192 497.767 220.84 497.805 245.488C497.825 258.305 497.961 271.123 498.573 284.67Z" fill="#989898"/>
<path d="M196.832 241.025C196.832 274.81 196.832 308.096 196.832 341.703C175.183 341.703 154.093 341.703 132.407 341.703C132.313 339.586 132.142 337.488 132.137 335.388C132.035 293.725 132.078 252.061 131.742 210.4C131.686 203.473 130.496 196.446 128.964 189.66C125.172 172.867 116.151 164.717 98.9729 164.428C88.6302 164.254 78.2446 166.744 67.8749 168.008C64.5275 168.416 64.785 170.837 64.7869 173.22C64.8024 192.886 64.7947 212.551 64.7946 232.217C64.7944 266.548 64.7945 300.879 64.7945 335.21C64.7945 337.191 64.7944 339.171 64.7944 341.589C43.2265 341.589 22.0223 341.589 0.336957 341.589C0.245679 339.768 0.0786262 337.988 0.0784122 336.208C0.0659312 231.548 0.0850645 126.887 1.25271e-05 22.2271C-0.00331447 18.1599 0.65321 16.0888 5.37648 15.4071C24.9618 12.5801 44.474 9.24603 64.6659 5.99292C64.6659 42.3741 64.6659 78.2826 64.6659 114.29C73.7367 112.64 82.1557 110.383 90.7016 109.691C115.544 107.68 139.755 109.929 161.297 124.11C180.881 137.001 189.736 156.471 193.871 178.713C197.679 199.192 196.697 219.881 196.832 241.025Z" fill="#989898"/>
<path d="M1138.4 364.795C1146.31 365.099 1153.81 365.866 1161.24 365.425C1172.07 364.783 1180.31 359.101 1186.39 350.216C1186.77 349.667 1187.17 349.135 1187.56 348.596C1194.57 338.969 1196.64 330.409 1190.39 318.026C1158.27 254.342 1132.85 187.897 1113.01 119.35C1112.46 117.455 1112.04 115.523 1111.48 113.263C1134.27 113.263 1156.7 113.263 1179.61 113.263C1193.2 163.407 1208.97 213.053 1228.08 263.173C1230.3 256.841 1232.29 251.891 1233.79 246.796C1246.42 203.716 1259.02 160.63 1271.4 117.477C1272.45 113.808 1273.88 112.883 1277.45 112.912C1297.76 113.073 1318.08 112.99 1338.67 112.99C1338.67 113.999 1338.85 114.803 1338.65 115.492C1314.07 197.992 1285.67 279.083 1248.16 356.71C1242.41 368.615 1235.16 379.992 1227.26 390.617C1213 409.797 1193 419.027 1169.33 420.681C1148.78 422.117 1128.83 419.651 1109.08 411.966C1112.83 394.62 1116.54 377.474 1120.25 360.292C1126.41 361.83 1132.19 363.275 1138.4 364.795Z" fill="#FDF449"/>
<path d="M412.748 51.0251C412.748 109.024 412.682 166.524 412.87 224.023C412.886 228.783 411.487 230.661 406.921 231.743C374.187 239.5 341.098 244.21 307.409 242.786C297.33 242.36 287.092 240.966 277.339 238.431C245.21 230.079 226.55 208.482 220.114 176.449C217.667 164.272 216.256 151.696 216.109 139.281C215.621 97.9544 215.921 56.618 215.919 15.2852C215.919 13.8087 215.919 12.3321 215.919 10.4263C237.516 10.4263 258.718 10.4263 280.645 10.4263C280.645 12.6548 280.643 14.7646 280.645 16.8745C280.672 56.0405 280.508 95.2082 280.868 134.371C280.951 143.46 282.112 152.685 284.024 161.58C287.598 178.213 295.852 186.003 312.678 187.394C324.151 188.343 335.814 186.991 347.925 186.653C347.925 127.131 347.925 68.8887 347.925 10.3231C369.604 10.3231 390.701 10.3231 412.748 10.3231C412.748 23.7167 412.748 37.121 412.748 51.0251Z" fill="#989898"/>
<path d="M1037.86 131.027C1030.04 131.027 1022.73 131.027 1015.12 131.027C1014.94 132.146 1014.66 133.068 1014.66 133.991C1014.66 160.815 1014.58 187.64 1014.8 214.463C1014.84 219.739 1015.62 225.11 1016.83 230.255C1020.85 247.347 1029.55 254.52 1047.09 254.839C1054.54 254.975 1062.07 254.316 1069.45 253.24C1076.82 252.167 1084.05 250.121 1091.72 248.417C1091.89 248.815 1092.46 249.642 1092.62 250.543C1095.31 265.273 1097.9 280.02 1100.62 294.744C1101.08 297.231 1100.72 298.615 1098.05 299.632C1068.62 310.854 1038.38 313.605 1007.77 306.446C976.156 299.051 958.131 278.063 953.033 246.291C951.142 234.503 950.114 222.453 950.058 210.516C949.769 149.204 949.924 87.889 949.924 26.575C949.924 24.6097 949.924 22.6443 949.924 20.4023C971.492 16.9231 992.632 13.5129 1014.42 9.99902C1014.42 32.3467 1014.42 54.3701 1014.42 76.8237C1040.43 76.8237 1065.85 76.8237 1091.62 76.8237C1091.62 94.9736 1091.62 112.692 1091.62 131.027C1073.89 131.027 1056.12 131.027 1037.86 131.027Z" fill="#FDF449"/>
<path d="M729.258 152.37C733.903 173.903 744.744 189.412 767.414 192.977C777.188 194.513 787.374 195.183 797.19 194.271C810.298 193.052 823.227 189.911 836.565 187.536C839.218 202.868 841.996 219.241 844.931 235.587C845.491 238.709 843.489 239.218 841.445 239.941C826.296 245.295 810.7 248.539 794.674 249.581C773.246 250.976 751.969 250.017 731.559 242.734C697.803 230.689 675.631 207.508 666.721 172.525C658.274 139.363 658.322 106.384 672.999 74.8543C690.665 36.9039 721.236 16.0524 762.559 11.0001C787.625 7.9356 812.029 11.2574 835.655 20.1874C837.486 20.8796 839.263 21.7153 841.463 22.654C837.034 39.5496 832.664 56.2244 828.135 73.5006C825.979 72.8502 824.124 72.3575 822.314 71.7336C809.461 67.3043 796.293 64.9023 782.648 65.0357C755.054 65.3055 736.675 79.5896 729.966 106.36C726.179 121.474 726.478 136.708 729.258 152.37Z" fill="#FDF449"/>
<path d="M865.076 308.025C865.076 243.26 865.076 178.995 865.076 114.359C886.638 114.359 907.858 114.359 929.435 114.359C929.435 189.941 929.435 265.627 929.435 341.671C908.286 341.671 887.054 341.671 865.076 341.671C865.076 330.706 865.076 319.616 865.076 308.025Z" fill="#FDF449"/>
<path d="M859.323 39.7191C863.786 19.1648 883.443 6.70443 904.598 10.6703C926.113 14.7036 938.731 32.4757 935.435 54.1056C932.326 74.5072 915.088 87.578 893.45 85.9405C873.345 84.419 859.012 69.2392 858.76 49.1077C858.723 46.1212 859.051 43.1302 859.323 39.7191Z" fill="#FDF449"/>
<path d="M756.501 410.846C752.702 409.091 749.316 407.431 746.99 406.291C741.317 407.957 736.142 410.491 730.831 410.822C720.446 411.469 712.033 402.911 711.801 392.546C711.652 385.912 711.773 379.271 711.773 372.327C714.999 372.327 717.916 372.327 721.538 372.327C721.538 378.223 721.502 384.163 721.547 390.103C721.599 397.01 725.586 401.616 731.35 401.527C737.145 401.438 740.894 396.901 740.919 389.898C740.939 384.107 740.923 378.316 740.923 372.277C744.307 372.277 747.239 372.277 750.865 372.277C750.865 378.138 750.837 384.069 750.872 389.999C750.914 396.856 754.927 401.549 760.643 401.503C766.366 401.457 770.303 396.836 770.382 389.924C770.448 384.12 770.395 378.314 770.395 372.265C773.771 372.265 776.705 372.265 779.841 372.265C779.841 380.099 780.538 387.953 779.668 395.629C778.527 405.705 769.507 411.307 756.501 410.846Z" fill="#FAF249"/>
<path d="M995.848 378.027C995.848 372.561 995.848 367.594 995.848 362.325C999.204 362.325 1002.25 362.325 1005.64 362.325C1005.64 366.09 1005.64 369.701 1005.64 373.431C1009.15 372.926 1012.3 372.13 1015.46 372.079C1026.15 371.907 1034.7 380.152 1034.94 390.571C1035.2 401.536 1027.24 410.457 1016.69 411.029C1005.99 411.61 996.755 403.703 995.983 392.997C995.636 388.195 995.875 383.351 995.848 378.027ZM1015.35 381.487C1009.45 382.513 1006.31 385.246 1005.87 390.034C1005.43 394.673 1007.36 398.135 1011.61 400.131C1015.77 402.083 1019.43 400.965 1022.54 397.888C1027.55 392.919 1025.29 382.302 1015.35 381.487Z" fill="#FAF249"/>
<path d="M865.544 373.422C878.862 368.175 895.045 378.441 892.003 394.866C882.942 394.866 873.743 394.866 864.277 394.866C867.243 400.969 872.14 402.399 877.589 400.234C881.615 398.635 886.102 398.197 891.105 397.081C888.281 406.811 881.581 411.331 872.184 411.033C863.404 410.753 855.395 404.278 853.784 396.156C851.837 386.341 856.016 378.089 865.544 373.422ZM870.804 385.017C873.63 385.017 876.456 385.017 880.351 385.017C874.165 380.518 871.229 380.579 866.178 385.017C867.87 385.017 868.929 385.017 870.804 385.017Z" fill="#FAF249"/>
<path d="M967.652 373.526C970.907 372.627 973.979 372.11 977.473 371.521C977.473 385.04 977.473 397.755 977.473 411.754C973.934 410.878 970.757 410.009 967.537 409.351C966.695 409.179 965.698 409.593 964.807 409.855C955.758 412.522 947.15 409.868 942.162 402.848C937.343 396.065 937.421 386.435 942.348 379.978C947.836 372.785 956.246 370.472 965.54 373.574C966.152 373.778 966.824 373.802 967.652 373.526ZM965.824 385.704C964.501 384.732 963.294 383.51 961.833 382.835C957.805 380.973 952.812 382.314 950.267 385.895C947.68 389.534 947.637 393.347 950.18 397.031C952.674 400.645 957.615 401.986 961.717 400.328C967.372 398.042 969.099 392.755 965.824 385.704Z" fill="#FAF249"/>
<path d="M1066.19 383.009C1065.13 384.019 1064.45 384.837 1062.62 387.017C1068.4 387.017 1072.76 387.124 1077.12 386.988C1082.02 386.835 1086.01 388.177 1088.09 393.014C1090.14 397.79 1087.78 401.445 1084.74 404.711C1075.45 414.702 1059.06 412.028 1052.51 398.168C1058.23 399.172 1063.14 399.752 1067.9 400.953C1072.01 401.992 1075.21 400.833 1077.16 396.034C1072.45 396.034 1068.05 395.915 1063.66 396.066C1058.89 396.229 1055.06 394.698 1053.02 390.237C1051.01 385.829 1053.02 382.161 1055.85 378.84C1064.8 368.34 1081.82 370.659 1088.48 384.665C1083.13 383.865 1078.64 383.032 1074.11 382.578C1071.63 382.328 1069.08 382.716 1066.19 383.009Z" fill="#FAF249"/>
<path d="M835.802 387.121C838.961 403.374 823.502 415.187 809.668 409.678C801.347 406.364 796.364 398.264 797.299 389.479C798.225 380.775 804.74 373.885 813.598 372.24C821.581 370.757 830.552 375.391 834.328 383.001C834.916 384.185 835.278 385.482 835.802 387.121ZM813.297 400.451C821.38 401.947 827.38 397.226 826.269 390.242C825.552 385.727 822.107 382.484 817.564 382.048C813.198 381.629 808.957 384.354 807.468 388.534C805.896 392.95 807.556 396.693 813.297 400.451Z" fill="#FAF249"/>
<path d="M919.789 385.025C919.789 393.799 919.789 402.073 919.789 410.689C916.462 410.689 913.438 410.689 910.164 410.689C910.164 394.533 910.164 378.527 910.164 362.268C913.306 362.268 916.222 362.268 919.789 362.268C919.789 369.711 919.789 377.118 919.789 385.025Z" fill="#FAF249"/>
</svg>
