<svg width="35" height="35" viewBox="0 0 35 35" fill="none" xmlns="http://www.w3.org/2000/svg">
<path d="M32.2027 20.5365C31.3194 23.4199 29.5492 25.9512 27.1441 27.7703C25.0324 29.3596 22.5196 30.329 19.8876 30.5695C17.2557 30.81 14.6088 30.3122 12.244 29.1319C9.87929 27.9517 7.89029 26.1357 6.50029 23.8878C5.11029 21.64 4.3743 19.0492 4.37494 16.4063C4.36554 13.3214 5.36838 10.3187 7.22963 7.85861C9.04873 5.45345 11.5801 3.68328 14.4634 2.80002C14.6535 2.7415 14.8558 2.7359 15.0488 2.78381C15.2418 2.83172 15.4181 2.93134 15.5587 3.07194C15.6993 3.21254 15.7989 3.38881 15.8468 3.58179C15.8947 3.77478 15.8891 3.97717 15.8306 4.16721C15.2001 6.25275 15.1473 8.47028 15.6777 10.5835C16.208 12.6967 17.3018 14.6265 18.8425 16.1671C20.3831 17.7077 22.3128 18.8015 24.426 19.3319C26.5392 19.8623 28.7568 19.8094 30.8423 19.1789C31.0324 19.1204 31.2348 19.1148 31.4277 19.1627C31.6207 19.2106 31.797 19.3102 31.9376 19.4508C32.0782 19.5914 32.1778 19.7677 32.2257 19.9607C32.2736 20.1537 32.268 20.3561 32.2095 20.5461L32.2027 20.5365Z" fill="black"/>
</svg>
