<svg width="35" height="35" viewBox="0 0 35 35" fill="none" xmlns="http://www.w3.org/2000/svg">
<path fill-rule="evenodd" clip-rule="evenodd" d="M15.1489 5.43312C17.5865 4.77123 20.1681 4.86988 22.5481 5.71585C24.9281 6.56182 26.9929 8.11474 28.4659 10.1667V7.7108C28.4659 7.4026 28.5884 7.10702 28.8063 6.88909C29.0242 6.67115 29.3198 6.54872 29.628 6.54872C29.9362 6.54872 30.2317 6.67115 30.4497 6.88909C30.6676 7.10702 30.79 7.4026 30.79 7.7108V14.2959H24.2051C23.8969 14.2959 23.6013 14.1735 23.3834 13.9556C23.1655 13.7376 23.0431 13.4421 23.0431 13.1339C23.0431 12.8256 23.1655 12.5301 23.3834 12.3121C23.6013 12.0942 23.8969 11.9718 24.2051 11.9718H26.8809C25.6672 10.0729 23.8517 8.63599 21.7249 7.8909C19.5981 7.1458 17.2829 7.13558 15.1495 7.86186C13.0162 8.58815 11.1881 10.009 9.95774 11.8971C8.72733 13.7851 8.16571 16.0313 8.36271 18.2763C8.55971 20.5213 9.50395 22.6354 11.0444 24.2803C12.5848 25.9252 14.6324 27.0059 16.8596 27.3495C19.0868 27.6931 21.3649 27.2798 23.3294 26.1757C25.294 25.0715 26.8314 23.3404 27.6959 21.2591C27.752 21.1148 27.8364 20.9832 27.9441 20.872C28.0517 20.7608 28.1806 20.6722 28.323 20.6114C28.4654 20.5507 28.6185 20.519 28.7733 20.5183C28.9281 20.5175 29.0815 20.5477 29.2245 20.6071C29.3675 20.6664 29.4971 20.7538 29.6059 20.8639C29.7146 20.9741 29.8003 21.1049 29.8578 21.2487C29.9153 21.3924 29.9435 21.5462 29.9408 21.701C29.938 21.8558 29.9044 22.0085 29.8418 22.1501C29.0343 24.0939 27.745 25.8001 26.0957 27.1077C24.4463 28.4154 22.4911 29.2815 20.4144 29.6244C18.3377 29.9673 16.2078 29.7757 14.2257 29.0677C12.2435 28.3596 10.4742 27.1584 9.08474 25.5774C7.69523 23.9963 6.73122 22.0874 6.28358 20.0307C5.83593 17.9739 5.9194 15.837 6.52611 13.8215C7.13282 11.8059 8.24279 9.97806 9.75139 8.5102C11.26 7.04234 13.1175 5.98439 15.1489 5.43312Z" fill="white"/>
</svg>
