<svg width="35" height="35" viewBox="0 0 35 35" fill="none" xmlns="http://www.w3.org/2000/svg">
<path d="M29.1667 17.5V8.38398C29.1668 8.26886 29.1442 8.15486 29.1001 8.04851C29.0561 7.94215 28.9915 7.84553 28.91 7.76419L24.3192 3.17335C24.1553 3.00921 23.9329 2.91689 23.7009 2.91669H6.70837C6.47631 2.91669 6.25375 3.00887 6.08966 3.17297C5.92556 3.33706 5.83337 3.55962 5.83337 3.79169V31.2084C5.83337 31.4404 5.92556 31.663 6.08966 31.8271C6.25375 31.9912 6.47631 32.0834 6.70837 32.0834H18.9584M11.6667 14.5834H23.3334M11.6667 8.75002H17.5M11.6667 20.4167H16.0417" stroke="black" stroke-width="2.1875" stroke-linecap="round" stroke-linejoin="round"/>
<path d="M23.3334 2.91669V7.87502C23.3334 8.10709 23.4256 8.32964 23.5897 8.49374C23.7537 8.65783 23.9763 8.75002 24.2084 8.75002H29.1667M29.155 22.0573L32.8825 23.0038C33.2705 23.1029 33.5432 23.4559 33.5315 23.8554C33.2807 32.2525 28.4375 33.5417 28.4375 33.5417C28.4375 33.5417 23.5944 32.2525 23.3436 23.8554C23.3396 23.661 23.4016 23.471 23.5194 23.3164C23.6373 23.1617 23.8041 23.0515 23.9925 23.0038L27.72 22.0573C28.1911 21.9377 28.684 21.9377 29.155 22.0573Z" stroke="black" stroke-width="2.1875" stroke-linecap="round" stroke-linejoin="round"/>
</svg>
