<svg width="35" height="35" viewBox="0 0 35 35" fill="none" xmlns="http://www.w3.org/2000/svg">
<path d="M35 4.375V17.3462C34.681 16.9474 34.3392 16.5658 33.9746 16.2012C33.61 15.8366 33.2227 15.5005 32.8125 15.1929V6.5625H2.1875V26.25H12.6465C12.6807 26.6146 12.7262 26.9792 12.7832 27.3438C12.8402 27.7083 12.9199 28.0729 13.0225 28.4375H0V4.375H35ZM25.1562 15.3125C26.512 15.3125 27.7881 15.5688 28.9844 16.0815C30.1807 16.5942 31.2231 17.3006 32.1118 18.2007C33.0005 19.1007 33.7012 20.1432 34.2139 21.3281C34.7266 22.513 34.9886 23.7891 35 25.1562C35 26.512 34.7437 27.7881 34.231 28.9844C33.7183 30.1807 33.0119 31.2231 32.1118 32.1118C31.2118 33.0005 30.1693 33.7012 28.9844 34.2139C27.7995 34.7266 26.5234 34.9886 25.1562 35C23.8005 35 22.5244 34.7437 21.3281 34.231C20.1318 33.7183 19.0894 33.0119 18.2007 32.1118C17.312 31.2118 16.6113 30.1693 16.0986 28.9844C15.5859 27.7995 15.3239 26.5234 15.3125 25.1562C15.3125 23.8005 15.5688 22.5244 16.0815 21.3281C16.5942 20.1318 17.3006 19.0894 18.2007 18.2007C19.1007 17.312 20.1432 16.6113 21.3281 16.0986C22.513 15.5859 23.7891 15.3239 25.1562 15.3125ZM25.1562 32.8125C26.2158 32.8125 27.207 32.6131 28.1299 32.2144C29.0527 31.8156 29.8617 31.2687 30.5566 30.5737C31.2516 29.8787 31.7985 29.0698 32.1973 28.147C32.596 27.2241 32.8011 26.2272 32.8125 25.1562C32.8125 24.0967 32.6131 23.1055 32.2144 22.1826C31.8156 21.2598 31.2687 20.4508 30.5737 19.7559C29.8787 19.0609 29.0698 18.514 28.147 18.1152C27.2241 17.7165 26.2272 17.5114 25.1562 17.5C24.0967 17.5 23.1055 17.6994 22.1826 18.0981C21.2598 18.4969 20.4508 19.0438 19.7559 19.7388C19.0609 20.4338 18.514 21.2427 18.1152 22.1655C17.7165 23.0884 17.5114 24.0853 17.5 25.1562C17.5 26.2158 17.6994 27.207 18.0981 28.1299C18.4969 29.0527 19.0438 29.8617 19.7388 30.5566C20.4338 31.2516 21.2427 31.7985 22.1655 32.1973C23.0884 32.596 24.0853 32.8011 25.1562 32.8125ZM24.0625 19.6875H26.25V26.25H24.0625V19.6875ZM24.0625 28.4375H26.25V30.625H24.0625V28.4375Z" fill="black"/>
</svg>
