<svg width="36" height="36" viewBox="0 0 36 36" fill="none" xmlns="http://www.w3.org/2000/svg">
<path d="M29.85 18.99C29.6095 18.7162 29.4769 18.3643 29.4769 18C29.4769 17.6356 29.6095 17.2837 29.85 17.01L31.77 14.85C31.9816 14.614 32.1129 14.317 32.1453 14.0017C32.1776 13.6864 32.1093 13.369 31.95 13.095L28.95 7.90496C28.7924 7.63125 28.5523 7.41428 28.2641 7.28499C27.9759 7.15571 27.6543 7.1207 27.345 7.18496L24.525 7.75496C24.1662 7.82911 23.7926 7.76935 23.4748 7.58696C23.157 7.40458 22.917 7.11219 22.8 6.76496L21.885 4.01996C21.7844 3.72203 21.5926 3.46326 21.3369 3.28023C21.0812 3.09719 20.7745 2.99915 20.46 2.99996H14.46C14.1329 2.98289 13.8092 3.07335 13.5383 3.25754C13.2675 3.44172 13.0644 3.70949 12.96 4.01996L12.12 6.76496C12.003 7.11219 11.763 7.40458 11.4452 7.58696C11.1274 7.76935 10.7538 7.82911 10.395 7.75496L7.5 7.18496C7.20682 7.14354 6.90795 7.1898 6.64102 7.31792C6.37409 7.44605 6.15105 7.65031 6 7.90496L3 13.095C2.83674 13.3659 2.76333 13.6816 2.79027 13.9968C2.81721 14.312 2.94312 14.6106 3.15 14.85L5.055 17.01C5.29548 17.2837 5.4281 17.6356 5.4281 18C5.4281 18.3643 5.29548 18.7162 5.055 18.99L3.15 21.15C2.94312 21.3893 2.81721 21.6879 2.79027 22.0031C2.76333 22.3183 2.83674 22.634 3 22.905L6 28.095C6.15764 28.3687 6.39768 28.5856 6.68588 28.7149C6.97407 28.8442 7.29573 28.8792 7.605 28.815L10.425 28.245C10.7838 28.1708 11.1574 28.2306 11.4752 28.413C11.793 28.5953 12.033 28.8877 12.15 29.235L13.065 31.98C13.1694 32.2904 13.3725 32.5582 13.6433 32.7424C13.9142 32.9266 14.2379 33.017 14.565 33H20.565C20.8795 33.0008 21.1862 32.9027 21.4419 32.7197C21.6977 32.5367 21.8894 32.2779 21.99 31.98L22.905 29.235C23.022 28.8877 23.262 28.5953 23.5798 28.413C23.8976 28.2306 24.2712 28.1708 24.63 28.245L27.45 28.815C27.7593 28.8792 28.0809 28.8442 28.3691 28.7149C28.6573 28.5856 28.8974 28.3687 29.055 28.095L32.055 22.905C32.2143 22.6309 32.2826 22.3135 32.2503 21.9982C32.2179 21.6829 32.0866 21.386 31.875 21.15L29.85 18.99ZM27.615 21L28.815 22.35L26.895 25.68L25.125 25.32C24.0447 25.0991 22.9209 25.2826 21.9669 25.8357C21.0129 26.3887 20.2952 27.2727 19.95 28.32L19.38 30H15.54L15 28.29C14.6548 27.2427 13.9371 26.3587 12.9831 25.8057C12.0291 25.2526 10.9053 25.0691 9.825 25.29L8.055 25.65L6.105 22.335L7.305 20.985C8.04293 20.1599 8.4509 19.0919 8.4509 17.985C8.4509 16.8781 8.04293 15.81 7.305 14.985L6.105 13.635L8.025 10.335L9.795 10.695C10.8753 10.9158 11.9991 10.7323 12.9531 10.1793C13.9071 9.62624 14.6248 8.7422 14.97 7.69496L15.54 5.99996H19.38L19.95 7.70996C20.2952 8.7572 21.0129 9.64124 21.9669 10.1943C22.9209 10.7473 24.0447 10.9308 25.125 10.71L26.895 10.35L28.815 13.68L27.615 15.03C26.8853 15.8531 26.4825 16.915 26.4825 18.015C26.4825 19.1149 26.8853 20.1768 27.615 21ZM17.46 12C16.2733 12 15.1133 12.3519 14.1266 13.0111C13.1399 13.6704 12.3708 14.6075 11.9167 15.7039C11.4626 16.8002 11.3438 18.0066 11.5753 19.1705C11.8068 20.3344 12.3782 21.4035 13.2174 22.2426C14.0565 23.0817 15.1256 23.6532 16.2895 23.8847C17.4533 24.1162 18.6597 23.9974 19.7561 23.5432C20.8525 23.0891 21.7895 22.3201 22.4488 21.3334C23.1081 20.3467 23.46 19.1867 23.46 18C23.46 16.4087 22.8279 14.8825 21.7026 13.7573C20.5774 12.6321 19.0513 12 17.46 12ZM17.46 21C16.8667 21 16.2866 20.824 15.7933 20.4944C15.2999 20.1647 14.9154 19.6962 14.6884 19.148C14.4613 18.5998 14.4019 17.9966 14.5176 17.4147C14.6334 16.8327 14.9191 16.2982 15.3387 15.8786C15.7582 15.4591 16.2928 15.1734 16.8747 15.0576C17.4567 14.9419 18.0599 15.0013 18.608 15.2283C19.1562 15.4554 19.6248 15.8399 19.9544 16.3333C20.2841 16.8266 20.46 17.4066 20.46 18C20.46 18.7956 20.1439 19.5587 19.5813 20.1213C19.0187 20.6839 18.2556 21 17.46 21Z" fill="black"/>
</svg>
