<svg width="35" height="35" viewBox="0 0 35 35" fill="none" xmlns="http://www.w3.org/2000/svg">
<path d="M14.5834 20.4167L30.625 4.375M14.5834 20.4167L19.6875 30.625C19.7515 30.7646 19.8542 30.8829 19.9835 30.9659C20.1128 31.0488 20.2631 31.0929 20.4167 31.0929C20.5703 31.0929 20.7206 31.0488 20.8499 30.9659C20.9792 30.8829 21.0819 30.7646 21.1459 30.625L30.625 4.375M14.5834 20.4167L4.37503 15.3125C4.23541 15.2485 4.11709 15.1458 4.03414 15.0165C3.95119 14.8873 3.9071 14.7369 3.9071 14.5833C3.9071 14.4297 3.95119 14.2794 4.03414 14.1501C4.11709 14.0209 4.23541 13.9182 4.37503 13.8542L30.625 4.375" stroke="white" stroke-width="2" stroke-linecap="round" stroke-linejoin="round"/>
</svg>
