<svg width="35" height="35" viewBox="0 0 35 35" fill="none" xmlns="http://www.w3.org/2000/svg">
<path d="M17.5 30.625C16.4792 30.625 15.6163 30.2725 14.9115 29.5677C14.2066 28.8628 13.8542 28 13.8542 26.9791C13.8542 25.9583 14.2066 25.0955 14.9115 24.3906C15.6163 23.6857 16.4792 23.3333 17.5 23.3333C18.5208 23.3333 19.3837 23.6857 20.0885 24.3906C20.7934 25.0955 21.1458 25.9583 21.1458 26.9791C21.1458 28 20.7934 28.8628 20.0885 29.5677C19.3837 30.2725 18.5208 30.625 17.5 30.625ZM9.26042 22.3854L6.19792 19.25C7.63194 17.816 9.31535 16.6799 11.2481 15.8419C13.1809 15.0038 15.2649 14.5843 17.5 14.5833C19.7351 14.5823 21.8196 15.0077 23.7533 15.8594C25.6871 16.711 27.37 17.8655 28.8021 19.3229L25.7396 22.3854C24.6701 21.316 23.4306 20.4774 22.0208 19.8698C20.6111 19.2621 19.1042 18.9583 17.5 18.9583C15.8958 18.9583 14.3889 19.2621 12.9792 19.8698C11.5694 20.4774 10.3299 21.316 9.26042 22.3854ZM3.0625 16.1875L0 13.125C2.23611 10.8403 4.84896 9.0538 7.83854 7.7656C10.8281 6.47741 14.0486 5.83331 17.5 5.83331C20.9514 5.83331 24.1719 6.47741 27.1615 7.7656C30.151 9.0538 32.7639 10.8403 35 13.125L31.9375 16.1875C30.066 14.316 27.8969 12.8518 25.4304 11.795C22.9639 10.7382 20.3204 10.2093 17.5 10.2083C14.6796 10.2073 12.0366 10.7362 9.57104 11.795C7.10549 12.8537 4.93597 14.3179 3.0625 16.1875Z" fill="white"/>
</svg>
